<svg width="276" height="65" viewBox="0 0 276 65" fill="none" xmlns="http://www.w3.org/2000/svg">
<path d="M70.1741 33.6381V2.27644H75.1107H80.0472V4.34951C80.0472 5.48969 80.0648 6.42257 80.0864 6.42257C80.1079 6.42257 80.7308 6.04678 81.4711 5.58749C90.2028 0.169443 102.896 -1.46206 114.28 1.37036C124.537 3.92213 131.973 9.97968 134.616 17.9373C136.16 22.5875 136.075 27.7588 134.38 32.2562C132.271 37.8507 127.936 42.3484 121.683 45.4298C116.211 48.1263 109.963 49.4764 102.959 49.4764C97.152 49.4764 91.7363 48.5173 86.969 46.6443C85.0773 45.9012 82.6526 44.6815 81.1815 43.733L80.0472 43.0013V54.0007V65H75.1107H70.1741V33.6381ZM107.734 41.1388C113.288 40.3585 117.596 38.6129 120.827 35.835C123.272 33.7322 124.975 30.8115 125.62 27.6144C125.884 26.307 125.885 23.219 125.623 21.9153C124.863 18.1528 122.687 14.8661 119.429 12.5613C118.115 11.6322 115.448 10.3087 113.745 9.74124C108.937 8.1389 103.107 7.66441 97.7672 8.44075C88.4963 9.78873 82.2303 14.3437 80.5492 20.957C79.8073 23.8748 79.9398 27.0248 80.9199 29.778C83.1464 36.0313 89.7116 40.1928 98.9895 41.2315C100.855 41.4404 105.976 41.386 107.736 41.1388H107.734ZM140.465 33.6381V2.27644H145.402H150.338V4.34951C150.338 5.48969 150.36 6.42257 150.386 6.42257C150.412 6.42257 150.955 6.08555 151.593 5.67365C153.069 4.72057 155.982 3.29507 157.85 2.61202C165.914 -0.336585 175.76 -0.812109 184.376 1.33089C198.421 4.82417 206.692 14.3947 205.912 26.2496C205.315 35.2988 199.237 42.732 189.24 46.6381C185.978 47.9122 182.636 48.7158 178.454 49.2311C176.246 49.5035 170.296 49.5029 167.992 49.2306C161.469 48.4598 155.742 46.541 151.277 43.6305L150.338 43.0183V54.0091V65H145.402H140.465V33.6381ZM178.264 41.0926C185.955 39.9549 191.375 36.8852 194.223 32.0545C195.877 29.2486 196.497 25.5159 195.883 22.0503C194.608 14.8467 188.218 9.86201 178.434 8.43944C171.976 7.50049 164.685 8.43575 159.728 10.8388C154.669 13.2918 151.624 16.9545 150.584 21.8377C150.311 23.1195 150.312 26.415 150.587 27.6716C151.323 31.0538 152.987 33.8522 155.512 35.9553C158.99 38.8514 163.515 40.5755 169.388 41.2421C171.33 41.4628 176.334 41.3783 178.265 41.0926H178.264ZM29.3947 49.4116C24.1576 48.9534 19.6876 47.9313 15.8865 46.3228C7.24078 42.6645 1.78011 36.4904 0.298165 28.6974C0.0151272 27.2089 -0.0928438 23.8557 0.0906956 22.2533C1.16085 12.9103 8.10836 5.51001 19.0925 2.01294C24.9378 0.151967 32.1329 -0.455946 38.591 0.365515C50.4234 1.87054 59.3735 7.30587 63.3073 15.3753C66.5105 21.9457 66.104 29.9267 62.2538 36.0625C60.5194 38.8265 57.6637 41.6788 54.721 43.5867C50.143 46.5547 44.6749 48.4011 38.0335 49.2216C36.7032 49.3859 30.6287 49.5196 29.3947 49.4116ZM36.3982 41.2413C41.5484 40.7 45.8807 39.2435 49.1405 36.9577C51.8056 35.0891 53.9142 32.335 54.8606 29.4879C55.4143 27.8211 55.5244 27.0386 55.5244 24.7612C55.5244 22.4905 55.4159 21.7145 54.8664 20.0467C53.06 14.565 47.7768 10.4874 40.3944 8.87767C33.9219 7.46632 26.3739 7.95686 20.7813 10.1523C16.7466 11.7362 13.5619 14.3001 11.6943 17.468C9.7084 20.8365 9.25786 25.4247 10.5248 29.3788C11.8897 33.6389 15.4856 37.2043 20.434 39.2041C23.1292 40.2934 26.4664 41.0524 29.7704 41.3274C31.038 41.433 35.0742 41.3805 36.3982 41.2413ZM240.053 49.4152C239.847 49.3919 239.122 49.3208 238.443 49.2568C232.993 48.7453 227.264 47.0402 223.064 44.6804C217.385 41.4899 213.43 36.9552 211.624 31.565C210.402 27.9174 210.194 23.818 211.038 20.0465C212.315 14.3437 215.819 9.50115 221.261 5.91962C228.437 1.19648 238.989 -0.90124 249.175 0.370193C257.637 1.42651 264.609 4.49267 269.461 9.29149C273.155 12.9461 275.28 17.2285 275.893 22.2601C276.054 23.5678 276.029 26.2121 275.843 27.5997C274.512 37.5912 266.517 45.2278 254.272 48.2028C250.56 49.1048 248.229 49.3777 243.863 49.4225C241.974 49.4417 240.26 49.4384 240.053 49.4152ZM246.546 41.2911C253.064 40.6969 258.378 38.5689 261.788 35.1854C264.098 32.8947 265.439 30.3729 265.967 27.3253C266.185 26.0694 266.182 23.4515 265.961 22.1488C264.773 15.136 258.531 10.0528 249.282 8.56543C247.062 8.20832 245.585 8.09198 243.272 8.09198C232.903 8.09198 224.858 11.9651 221.763 18.4466C220.841 20.3785 220.415 22.3722 220.415 24.7612C220.415 27.9135 221.157 30.4137 222.831 32.9048C225.904 37.4783 231.733 40.4 239.447 41.2342C241.038 41.4065 244.938 41.4376 246.546 41.2911Z" fill="#6E6A79"/>
</svg>
