<svg width="248" height="48" viewBox="0 0 248 48" fill="none" xmlns="http://www.w3.org/2000/svg">
<path d="M26.8821 0.628577V19.5888H8.33691V0.628577H0V47.4062H8.33691V27.9226H26.8821V47.4062H35.219V0.628577H26.8821ZM219.812 8.96239H229.094C232.902 8.96239 235.986 12.0458 235.986 15.8493C235.986 19.6551 232.902 22.7385 229.094 22.7385H219.812V8.96239ZM211.48 0.628577V47.4062H219.814V26.59L237.167 47.4062H248L233.777 30.3546C240.917 28.0689 245.332 20.9374 244.189 13.5339C243.047 6.13035 236.686 0.656006 229.191 0.628577H211.466H211.48ZM132.634 0.48915V29.678L112.397 0.48915H105.739V47.2622H114.078V17.9408L134.415 47.2645H140.96V0.48915H132.634ZM54.8065 23.9865C54.8111 15.335 61.8308 8.32466 70.4857 8.32695C79.1428 8.33152 86.1557 15.3465 86.1534 23.998C86.1512 32.6495 79.136 39.6621 70.4788 39.6621C66.3206 39.6621 62.335 38.0118 59.3963 35.0747C56.4576 32.1375 54.8065 28.1512 54.8065 23.9957V23.9865ZM46.4696 23.9957C46.4696 33.7055 52.3175 42.4553 61.2903 46.1719C70.2631 49.8863 80.5894 47.8359 87.457 40.9719C94.3246 34.1078 96.3799 23.7854 92.6622 14.8162C88.9468 5.84692 80.1897 0 70.4788 0C57.2252 0.00228574 46.481 10.7384 46.4742 23.9888L46.4696 23.9957ZM160.552 23.9865C160.557 15.335 167.576 8.32237 176.233 8.32695C184.891 8.33152 191.901 15.3487 191.897 24.0003C191.894 32.6518 184.875 39.6644 176.218 39.6599C172.062 39.6599 168.076 38.0096 165.135 35.0724C162.194 32.1352 160.545 28.1489 160.545 23.9934L160.552 23.9865ZM152.208 23.9957C152.206 33.7055 158.056 42.4553 167.027 46.1719C176 49.8863 186.328 47.8359 193.193 40.9719C200.059 34.1078 202.119 23.7854 198.399 14.8162C194.683 5.84692 185.928 0 176.215 0C162.962 0.00228574 152.215 10.7384 152.208 23.9888V23.9957Z" fill="#6E6A79"/>
</svg>
