<svg width="292" height="62" viewBox="0 0 292 62" fill="none" xmlns="http://www.w3.org/2000/svg">
<path d="M138.583 0H127.669V9.20619H138.583V0Z" fill="#6E6A79"/>
<path d="M10.8693 4.84309H0V61.9563H10.8693V4.84309Z" fill="#6E6A79"/>
<path d="M190.836 17.627H166.514C166.514 17.627 162.103 17.627 160.5 20.7685V17.627H149.631V61.9564H160.5V33.4216C160.5 29.931 163.395 27.095 166.959 27.095H187.539C191.103 27.095 193.998 29.931 193.998 33.4216V61.9564H204.645V30.2365C204.69 30.2365 203.888 17.627 190.836 17.627Z" fill="#6E6A79"/>
<path d="M127.669 17.5834H138.583V62H127.669V17.5834Z" fill="#6E6A79"/>
<path d="M226.562 17.627H215.692V61.9564H226.562V17.627Z" fill="#6E6A79"/>
<path d="M38.7552 17.627H63.0774C76.1739 17.627 76.9758 30.2365 76.9312 30.2365V61.9564H66.2847V33.4216C66.2847 29.931 63.3892 27.095 59.8255 27.095H39.2007C35.637 27.095 32.7415 29.931 32.7415 33.4216V61.9564H21.8722V17.627H32.7415V20.7685C34.3451 17.627 38.7552 17.627 38.7552 17.627Z" fill="#6E6A79"/>
<path d="M215.692 0H226.562V9.20619H215.692V0Z" fill="#6E6A79"/>
<path d="M292 17.627H278.413L262.778 33.1161L247.142 17.627H233.6L255.962 39.8353L233.6 61.9564H247.32L262.778 46.5982L278.28 61.9564H292L269.593 39.8353L292 17.627Z" fill="#6E6A79"/>
<path d="M106.109 9.20619C105.04 9.20619 104.149 9.59886 103.481 10.297C103.375 10.4005 103.297 10.5041 103.203 10.6293C103.178 10.6623 103.152 10.6969 103.124 10.7333C102.723 11.3005 102.456 11.9986 102.456 12.7403C102.456 12.7584 102.464 12.7839 102.473 12.8139C102.485 12.8562 102.501 12.9073 102.501 12.9585C102.456 13.2203 102.456 13.4821 102.456 13.7438V17.627H118.225V27.095H102.456V61.9563H91.7205V27.095H84.1477C81.4749 19.0232 77.5994 17.627 77.5994 17.627H91.7205V11.3005C91.7205 8.98803 92.7451 6.06473 94.7942 3.97044C97.1997 1.48346 100.986 0.0436339 104.995 0.0436339H105.173C106.34 -0.00952859 107.325 0.00207834 107.947 0.00941502C108.346 0.0141168 108.596 0.0170583 108.648 0H118.27V9.20619H106.109Z" fill="#6E6A79"/>
</svg>
