<svg width="290" height="74" viewBox="0 0 290 74" fill="none" xmlns="http://www.w3.org/2000/svg">
<path d="M289.984 0H0V74H289.984V0Z" fill=""/>
<path d="M289.984 0H0V74H289.984V0Z" fill=""/>
<path d="M28.9301 0.208982C24.829 0.752484 20.424 2.21575 16.9166 4.22254C8.03753 9.2813 2.09977 17.852 0.33225 28.1507C0.00083987 30.1017 -0.0820126 35.5507 0.180354 37.6271C0.66366 41.362 1.65789 44.7205 3.23209 48.0234C4.90295 51.5213 6.62904 54.0159 9.25271 56.7612C13.6163 61.3322 19.1536 64.5793 25.1603 66.0565C28.2811 66.823 29.4549 66.9623 33.2108 66.9623C36.9669 66.9623 38.1545 66.823 41.2615 66.0565C45.9564 64.8998 50.8584 62.3913 54.5317 59.3116C56.0644 58.0155 58.6052 55.3258 59.7928 53.7232C62.9964 49.4309 65.1367 44.414 65.9929 39.2715C68.2161 26.0046 62.6926 13.0161 51.6593 5.56039C47.3511 2.64777 42.5594 0.863972 37.2845 0.19505C35.3512 -0.0418621 30.8496 -0.0418621 28.9301 0.208982ZM28.2536 25.1126C30.9049 33.9898 33.1419 41.2505 33.2108 41.2505C33.2938 41.2505 35.517 33.9898 38.1682 25.1126C40.8195 16.2493 43.0289 8.90502 43.0703 8.80747C43.1532 8.66811 46.0531 18.1447 55.5949 49.7235L55.7744 50.3089H54.6696C53.9102 50.3089 53.5512 50.2531 53.5097 50.1277C53.4822 50.044 53.206 48.985 52.8883 47.8004C51.4109 42.2678 49.4085 38.0452 47.3786 36.2196C46.9505 35.8294 46.1359 35.2859 45.5836 35.0072C44.5618 34.5055 44.5202 34.4915 42.8908 34.4915C41.2476 34.4915 41.2062 34.5055 40.3225 34.9793C39.2316 35.5645 37.5882 37.1812 36.7045 38.5329C35.9174 39.7454 34.6332 42.1563 33.8185 43.9261C33.2799 45.1107 33.1971 45.2362 33.0866 44.9714C32.5066 43.5918 30.6839 40.0102 30.1177 39.1601C28.7231 37.0418 27.2732 35.5925 25.8233 34.8678C25.1328 34.5333 24.9257 34.4915 23.5448 34.5055C21.7772 34.5055 21.0731 34.7285 19.6507 35.7597C17.0822 37.6132 14.9834 42.0587 12.9811 49.849L12.8292 50.4483H11.7245C10.8821 50.4483 10.6198 50.4065 10.6612 50.2671C10.7026 50.1834 13.5472 40.7628 16.9856 29.3631C20.4378 17.9635 23.2962 8.70992 23.3376 8.80747C23.3929 8.90502 25.6023 16.2493 28.2536 25.1126Z" fill="#6E6A79"/>
<path d="M154.935 24.1513C154.935 32.2899 154.99 37.4462 155.087 38.1848C155.377 40.6235 156.44 42.8672 158.153 44.679C160.307 46.9784 162.806 48.0933 166.3 48.3023L167.778 48.3998V42.6443H166.838C165.098 42.6443 163.663 42.1008 162.503 40.9998C161.688 40.2334 161.204 39.453 160.859 38.3102C160.624 37.5298 160.597 36.9445 160.597 30.9242V24.3882H167.639V18.6744H160.597V11.2883H154.935V24.1513Z" fill="#6E6A79"/>
<path d="M251.595 47.9395H257.257V11.288H251.595V47.9395Z" fill="#6E6A79"/>
<path d="M87.8942 18.8274C84.221 19.3709 80.8656 21.9072 79.2913 25.3634C78.2004 27.7325 78.2418 27.189 78.1866 38.1426L78.1452 47.9395H83.8206V38.5328C83.8206 29.4327 83.8344 29.0842 84.0968 28.276C85.5053 24.0533 90.5041 22.7573 93.6662 25.7675C94.0805 26.1576 94.5776 26.7987 94.7985 27.189C95.558 28.6105 95.558 28.5687 95.558 38.6303V47.9395H101.22V38.491C101.22 27.9136 101.192 28.3038 102.214 26.7569C103.802 24.36 106.895 23.454 109.436 24.6526C110.499 25.1543 111.673 26.2134 112.17 27.1472C112.957 28.5965 112.957 28.6523 112.957 38.7001V47.9395H118.494L118.412 27.9414L118.08 26.966C116.603 22.5344 113.081 19.4545 108.745 18.8134C105.224 18.3117 101.634 19.4545 99.0655 21.9072L98.3198 22.618L97.4223 21.7678C94.9229 19.3987 91.4016 18.3117 87.8942 18.8274Z" fill="#6E6A79"/>
<path d="M134.705 18.8274C127.193 19.9145 121.711 26.6315 122.111 34.1988C122.318 37.9754 123.81 41.3759 126.406 43.9819C127.731 45.3197 128.836 46.0863 130.548 46.8945C138.156 50.476 147.216 46.9085 150.378 39.0624C151.566 36.0941 151.759 32.624 150.916 29.5303C150.572 28.2621 149.646 26.2554 148.859 25.0708C148.086 23.9281 146.276 22.1024 145.144 21.3359C142.037 19.2177 138.253 18.3119 134.705 18.8274ZM139.511 24.7921C141.056 25.3495 141.996 25.9487 143.197 27.1751C145.047 29.0286 145.821 30.91 145.821 33.516C145.821 35.0629 145.572 36.0802 144.826 37.6271C143.694 39.9822 141.319 41.8358 138.681 42.4211C134.76 43.2991 130.59 41.2783 128.767 37.6271C128.007 36.108 127.814 35.244 127.814 33.4462C127.814 32.0527 127.869 31.6904 128.201 30.7288C129.264 27.6071 131.639 25.3913 134.76 24.5969C135.878 24.3042 138.461 24.4158 139.511 24.7921Z" fill="#6E6A79"/>
<path d="M182.276 18.8274C180.895 19.0085 179.086 19.58 177.733 20.2628C172.279 23.0361 169.198 28.6523 169.738 34.8817C170.249 40.9298 174.404 46.0165 180.259 47.7167C186.362 49.5005 193.032 47.0477 196.54 41.7102C199.44 37.3064 199.785 31.5648 197.424 26.8266C196.071 24.0952 193.543 21.5728 190.741 20.1513C188.379 18.9667 185.134 18.4511 182.276 18.8274ZM187.219 24.8756C187.772 25.0707 188.463 25.3773 188.738 25.5445C191.611 27.2029 193.35 30.1991 193.35 33.5158C193.35 36.0522 192.536 38.0172 190.699 39.8707C189.732 40.8462 189.291 41.1807 188.324 41.6545C185.078 43.2433 181.667 42.8808 178.727 40.6372C177.153 39.4247 175.883 37.3483 175.454 35.23C175.192 33.9201 175.179 33.2929 175.44 31.8575C176.048 28.4013 178.782 25.4888 182.262 24.5969C183.518 24.2624 185.962 24.4018 187.219 24.8756Z" fill="#6E6A79"/>
<path d="M211.924 18.8971C207.38 19.7193 203.721 23.3288 202.796 27.8998C202.603 28.8196 202.575 30.3525 202.575 38.4633V47.9397H208.099V39.1183C208.099 33.6833 208.154 29.9623 208.25 29.4188C208.595 27.2029 210.114 25.3913 212.214 24.6806C212.903 24.4437 213.401 24.3879 214.865 24.3879H216.66V18.6742L214.838 18.6881C213.829 18.6881 212.518 18.7857 211.924 18.8971Z" fill="#6E6A79"/>
<path d="M231.298 18.8133C227.515 19.3568 223.924 21.4749 221.618 24.5688C216.785 31.0211 218.027 40.3862 224.365 45.222C230.138 49.6258 238.147 49.2355 243.367 44.3022C245.175 42.6019 246.432 40.609 247.233 38.1843C248.697 33.7247 248.02 28.8749 245.368 25.0147C244.429 23.6351 242.399 21.7119 240.978 20.8479C239.694 20.0674 237.843 19.3288 236.379 19.0083C235.15 18.7435 232.513 18.646 231.298 18.8133ZM235.495 24.6663C237.193 25.0983 238.382 25.7952 239.721 27.1609C240.908 28.3733 241.447 29.2373 241.999 30.8679C242.358 31.8991 242.441 34.3937 242.151 35.5365C241.295 39.0065 238.547 41.6961 235.108 42.4486C231.229 43.2848 227.072 41.2362 225.29 37.585C224.489 35.9684 224.199 34.6167 224.296 33.0279C224.545 28.9725 227.376 25.5582 231.284 24.5967C232.444 24.3179 234.253 24.3457 235.495 24.6663Z" fill="#6E6A79"/>
<path d="M273.967 18.7435C273.857 18.7715 273.29 18.8689 272.725 18.9526C268.36 19.6773 264.343 22.6735 262.326 26.687C259.096 33.1672 260.78 40.8599 266.401 45.2498C271.399 49.1379 278.594 49.3051 283.771 45.6539L284.67 45.0128L284.752 47.9394H290L289.958 39.3966C289.916 31.1466 289.903 30.8261 289.613 29.7947C288.398 25.4607 285.746 22.1718 281.907 20.2626C279.878 19.2592 278.151 18.8271 275.9 18.7435C274.948 18.7157 274.078 18.7157 273.967 18.7435ZM278.22 24.8475C281.797 26.1157 284.185 29.2792 284.42 33.0278C284.544 35.1044 283.869 37.2923 282.529 39.0761C280.969 41.1665 278.055 42.6298 275.446 42.6437C272.117 42.6577 268.803 40.5952 267.366 37.6268C266.621 36.0938 266.372 35.0626 266.372 33.5157C266.372 30.9097 267.145 29.0283 268.996 27.1609C270.322 25.823 271.495 25.1123 273.166 24.6664C274.616 24.2621 276.825 24.3459 278.22 24.8475Z" fill="#6E6A79"/>
<path d="M80.8503 65.2483C79.428 68.4116 78.2405 71.0874 78.1991 71.171C78.1438 71.3104 78.3372 71.3522 78.8895 71.3522H79.6352L80.9884 68.2862H87.0781L87.7546 69.8193L88.4451 71.3522H90.0331L89.674 70.5439C89.4808 70.1119 88.2932 67.45 87.0228 64.6211L84.7168 59.5066H83.4464L80.8503 65.2483ZM84.9654 63.2693C85.3796 64.2309 85.9182 65.4294 86.1528 65.945L86.5672 66.8927H81.6236L82.7144 64.4678C83.8744 61.8478 84.0954 61.4019 84.1644 61.4855C84.1783 61.4995 84.5373 62.3077 84.9654 63.2693Z" fill="#6E6A79"/>
<path d="M159.492 59.7015C156.564 60.5517 154.756 63.4225 155.225 66.4745C155.708 69.6798 158.705 71.9373 161.853 71.4914C162.902 71.3382 164.491 70.5716 165.126 69.9305L165.567 69.4568L164.615 68.523L164.09 68.9829C162.213 70.6553 159.492 70.5716 157.863 68.7878C155.626 66.3351 156.316 62.7257 159.285 61.3042C160.776 60.5795 162.599 60.8443 163.911 61.9732L164.504 62.4887L164.974 61.9592L165.458 61.4297L165.057 61.0116C164.85 60.7887 164.214 60.3706 163.648 60.0918C162.738 59.6319 162.516 59.5901 161.37 59.5483C160.638 59.5344 159.851 59.5901 159.492 59.7015Z" fill="#6E6A79"/>
<path d="M95.6949 71.3522H103.566V70.0979H97.0758V59.6459H95.6949V71.3522Z" fill="#6E6A79"/>
<path d="M195.119 62.6143C194.317 62.8372 193.558 63.3111 193.199 63.7988L192.923 64.1751L192.909 63.4365V62.7117H191.528V74H192.909V70.0699L193.421 70.516C194.262 71.2686 195.022 71.5333 196.071 71.4636C197.715 71.3382 199.041 70.3765 199.758 68.8018C200.09 68.0631 200.117 67.8542 200.062 66.7812C200.02 65.7778 199.938 65.4433 199.606 64.8162C198.681 63.116 196.734 62.1684 195.119 62.6143ZM196.886 64.0496C197.563 64.3283 198.129 64.8858 198.446 65.5687C198.791 66.3213 198.791 67.7426 198.446 68.5091C197.963 69.596 196.54 70.3906 195.519 70.1676C193.06 69.6241 192.095 66.7951 193.696 64.844C194.428 63.9522 195.836 63.6035 196.886 64.0496Z" fill="#6E6A79"/>
<path d="M107.253 62.7673C105.624 63.3526 104.533 64.8019 104.312 66.6415C104.16 67.9654 104.782 69.5821 105.803 70.4461C107.184 71.6306 109.062 71.8814 110.637 71.101C111.12 70.8642 111.672 70.5017 111.852 70.3067L112.183 69.9444L111.755 69.5263L111.341 69.0942L110.706 69.5821C109.891 70.2092 108.841 70.4599 107.944 70.2231C106.88 69.9582 105.776 68.7598 105.776 67.8819C105.776 67.5891 105.817 67.5891 109.104 67.5891H112.445L112.376 66.5719C112.266 64.8159 111.493 63.5616 110.126 62.9067C109.325 62.5304 108.096 62.4746 107.253 62.7673ZM109.794 64.1609C110.291 64.4954 110.761 65.2898 110.94 66.0841L111.023 66.4743H105.665L105.776 65.9726C106.08 64.6487 107.46 63.5896 108.676 63.7428C109.007 63.7986 109.518 63.9797 109.794 64.1609Z" fill="#6E6A79"/>
<path d="M116.685 62.7954C116.422 62.907 115.994 63.1996 115.76 63.4365L115.304 63.8824V62.7119H113.923V71.3522H115.304V68.5232C115.304 65.3457 115.359 65.0949 116.312 64.3285C116.781 63.9522 116.961 63.8964 117.72 63.8964C118.673 63.8964 119.087 64.1055 119.64 64.858C119.902 65.2063 119.93 65.4573 119.971 68.3002L120.013 71.3522H121.38V68.1051C121.38 65.2621 121.338 64.8022 121.117 64.3145C120.8 63.6316 120.234 63.0742 119.557 62.7954C118.894 62.5167 117.32 62.5167 116.685 62.7954Z" fill="#6E6A79"/>
<path d="M125.577 62.8653C124.597 63.2415 123.686 64.0917 123.216 65.0533C122.871 65.7501 122.83 66.0009 122.83 67.1018C122.843 68.1888 122.899 68.4536 123.216 69.0808C124.28 71.1572 126.558 72.063 128.795 71.2965C129.748 70.976 130.797 70.0144 131.281 69.011C131.612 68.3282 131.667 68.0634 131.653 67.0321C131.653 65.5967 131.322 64.7885 130.355 63.8129C129.182 62.6284 127.193 62.2381 125.577 62.8653ZM128.574 64.1474C130.549 65.2065 130.88 68.0216 129.195 69.4989C126.986 71.4639 123.658 69.2898 124.28 66.2936C124.459 65.4156 125.122 64.5376 125.923 64.1055C126.641 63.7154 127.801 63.7432 128.574 64.1474Z" fill="#6E6A79"/>
<path d="M143.889 62.698C142.605 63.1161 141.611 64.0219 141.044 65.2622C140.712 66.0009 140.685 66.2099 140.741 67.283C140.781 68.2864 140.865 68.6208 141.197 69.234C142.563 71.7703 146.001 72.3417 148.183 70.4046C149.591 69.1642 150.02 66.6837 149.135 64.9417C148.777 64.2309 147.851 63.3391 147.092 62.9767C146.401 62.6283 144.551 62.475 143.889 62.698ZM146.472 64.1751C147.576 64.7326 148.17 65.7639 148.17 67.1157C148.17 68.8856 146.871 70.2374 145.173 70.2374C144.303 70.2234 143.53 69.8611 142.895 69.1504C141.458 67.5338 142.066 64.7744 144.026 63.9801C144.676 63.7154 145.726 63.799 146.472 64.1751Z" fill="#6E6A79"/>
<path d="M168.936 62.8649C167.956 63.2412 167.046 64.0914 166.575 65.053C166.244 65.7497 166.189 66.0006 166.189 67.1016C166.189 68.1328 166.258 68.4813 166.521 69.0108C167.528 71.1011 169.917 72.0627 172.155 71.2963C173.107 70.9757 174.156 70.0142 174.64 69.0108C174.971 68.3279 175.026 68.0632 175.013 67.0318C175.013 65.5965 174.681 64.7881 173.715 63.8127C172.54 62.6281 170.552 62.2379 168.936 62.8649ZM171.933 64.1471C173.853 65.1784 174.225 67.9238 172.651 69.4289C171.243 70.7946 168.826 70.3487 167.929 68.5787C167.072 66.9064 167.694 64.9415 169.365 64.0635C170.001 63.7151 171.201 63.7709 171.933 64.1471Z" fill="#6E6A79"/>
<path d="M179.004 62.9906C178.603 63.2136 178.229 63.5201 178.147 63.6456C178.037 63.8406 178.008 63.771 177.995 63.2971V62.7119H176.614V71.3522H177.995V68.4674C177.995 65.6524 178.008 65.5826 178.34 64.9974C178.962 63.9244 180.398 63.5201 181.309 64.1473C182.262 64.7884 182.345 65.081 182.386 68.3838L182.442 71.3522H183.794V68.4256C183.794 65.1507 183.836 64.9695 184.72 64.2867C185.368 63.785 186.584 63.7292 187.205 64.1891C188.007 64.7744 188.075 65.1367 188.075 68.3838V71.3522H189.622L189.567 68.1748C189.525 65.0252 189.525 65.0113 189.138 64.203C188.573 63.0603 187.951 62.6561 186.597 62.5865C185.355 62.5307 184.596 62.7816 183.892 63.5063L183.394 63.994L182.924 63.4923C182.303 62.8373 181.64 62.5725 180.591 62.5725C179.887 62.5725 179.584 62.6561 179.004 62.9906Z" fill="#6E6A79"/>
<path d="M203.832 62.7118C202.878 62.8652 201.884 63.2414 201.884 63.4645C201.884 63.6316 202.161 64.5235 202.202 64.5235C202.216 64.5235 202.561 64.3981 202.948 64.2449C204.439 63.6734 205.793 63.743 206.566 64.4399C206.938 64.7744 207.27 65.4851 207.27 65.9729C207.27 66.2934 207.256 66.3073 206.69 66.1679C205.862 65.9729 203.859 65.9729 203.183 66.1679C201.773 66.5722 201.001 67.6174 201.083 69.0109C201.125 69.6519 201.235 69.9307 201.554 70.3348C202.202 71.157 202.975 71.4915 204.259 71.4915C205.419 71.4915 206.054 71.2964 206.814 70.7111L207.27 70.3628V71.3522H208.678L208.624 68.1051C208.582 65.0671 208.568 64.8302 208.279 64.2867C207.588 62.9766 205.903 62.3913 203.832 62.7118ZM206.304 67.2271L207.201 67.3804L207.243 68.0633C207.325 69.3732 206.151 70.4184 204.577 70.4184C203.652 70.4184 203.004 70.0561 202.658 69.3594C202.437 68.8855 202.424 68.7739 202.588 68.328C203.017 67.1993 204.204 66.8508 206.304 67.2271Z" fill="#6E6A79"/>
<path d="M213.344 62.7954C213.083 62.907 212.655 63.1996 212.421 63.4365L211.965 63.8824V62.7119H210.584V71.3522H211.965V68.565C211.965 65.4433 212.02 65.1367 212.835 64.4261C213.939 63.4505 215.5 63.6734 216.355 64.9416C216.645 65.3876 216.66 65.5269 216.66 68.3698V71.3522H218.04V68.1051C218.04 65.2621 217.999 64.8022 217.778 64.3145C217.46 63.6316 216.894 63.0742 216.217 62.7954C215.555 62.5167 213.98 62.5167 213.344 62.7954Z" fill="#6E6A79"/>
<path d="M131.93 62.9486C131.985 63.088 132.814 65.067 133.78 67.3525L135.534 71.5054L136.155 71.4636L136.763 71.4218L138.6 67.1713C139.608 64.83 140.436 62.879 140.436 62.8093C140.436 62.7535 140.105 62.7117 139.718 62.7117H138.986L137.62 66.0564C136.874 67.896 136.21 69.401 136.155 69.401C136.101 69.401 135.645 68.3559 135.134 67.0598C134.609 65.7776 134.015 64.2726 133.78 63.7151L133.366 62.7117H132.607C131.944 62.7117 131.861 62.7397 131.93 62.9486Z" fill="#6E6A79"/>
<path d="M218.924 62.9489C218.966 63.0883 219.836 65.0113 220.858 67.2412L222.694 71.2825L222.446 71.7982C221.99 72.704 221.204 73.0246 220.264 72.6901L219.67 72.495L219.477 72.9688C219.367 73.2197 219.284 73.4984 219.284 73.5681C219.284 73.9722 221.618 74.1673 222.294 73.805C222.694 73.582 223.261 73.0106 223.592 72.4671C223.814 72.0908 227.569 62.9767 227.569 62.8095C227.569 62.7398 227.223 62.712 226.796 62.7398L226.023 62.7817L225.208 64.9417C224.752 66.1263 224.159 67.6871 223.882 68.3978L223.385 69.6939L220.403 62.7817L219.63 62.7398C218.924 62.698 218.856 62.726 218.924 62.9489Z" fill="#6E6A79"/>
</svg>
