<svg width="324" height="96" viewBox="0 0 324 96" fill="none" xmlns="http://www.w3.org/2000/svg">
<path fill-rule="evenodd" clip-rule="evenodd" d="M324 0H0V96H324V0ZM147.411 33.2977C143.703 30.2935 138.807 28.5955 133.732 28.5955C127.44 28.5955 121.707 30.9066 117.594 35.102C113.535 39.2445 111.294 44.9512 111.294 51.173C111.294 57.3865 113.526 63.0751 117.594 67.1998C121.698 71.3777 127.431 73.6795 133.732 73.6795C138.87 73.6795 143.767 71.9907 147.411 69.004V73.0045H154.368V29.2799H147.411V33.2977ZM100.134 34.2309C96.4351 30.489 91.269 28.4355 85.5719 28.4355C72.6753 28.4355 63.3153 37.9286 63.3153 51.0134C63.3153 64.2577 72.3962 73.5108 85.4011 73.5108C94.0228 73.5108 100.737 69.8397 104.823 62.8977L105.174 62.3022L99.1444 58.471L98.7569 59.12C95.5713 64.4798 91.3323 66.9776 85.4099 66.9776C77.1573 66.9776 70.812 60.8801 70.3799 52.6663H106.209V50.4178C106.164 43.8042 104.067 38.2134 100.134 34.2309ZM285.2 34.2309C281.502 30.489 276.336 28.4355 270.638 28.4355C257.742 28.4355 248.373 37.9286 248.373 51.0134C248.382 64.2577 257.463 73.5108 270.467 73.5108C279.091 73.5108 285.804 69.8397 289.891 62.8977L290.242 62.3022L284.211 58.471L283.824 59.12C280.638 64.4798 276.399 66.9776 270.478 66.9776C262.225 66.9776 255.88 60.8801 255.447 52.6663H291.276V50.4178C291.232 43.8042 289.134 38.2134 285.2 34.2309ZM60.633 35.7243V29.1911H33.4351V72.9953H40.4732V35.7243H60.633ZM242.379 46.4353C242.379 35.4308 236.116 28.5955 226.035 28.5955C220.094 28.5955 214.965 31.12 211.761 35.5555C209.655 32.1686 205.74 28.595 198.585 28.595C193.752 28.595 189.611 30.293 186.706 33.4223V29.1818H179.667V72.8977H186.706V44.9158C186.706 39.0665 192.177 35.1379 197.298 35.1379C203.517 35.1379 207.378 39.4666 207.378 46.4445V72.9245H214.417V45.5909C214.417 40.5331 217.242 35.1286 225.18 35.1286C231.354 35.1286 235.341 39.5642 235.341 46.4353V72.9151H242.379V46.4353ZM170.532 72.9151V16.2843H163.494V72.9151H170.532ZM118.332 51.1822C118.332 42.2758 124.803 35.5555 133.38 35.5555C142.281 35.5555 148.257 41.8403 148.257 51.1822C148.257 60.48 142.281 66.7289 133.38 66.7289C124.803 66.7196 118.332 60.0444 118.332 51.1822ZM70.704 46.3912C72.3957 39.6179 78.3182 34.9599 85.4099 34.9599C92.4298 34.9599 97.8121 39.52 99.0541 46.3912H70.704ZM255.762 46.3912C257.454 39.6179 263.376 34.9599 270.467 34.9599C277.488 34.9599 282.87 39.52 284.112 46.3912H255.762Z" fill="#6E6A79"/>
</svg>
