<svg width="324" height="53" viewBox="0 0 324 53" fill="none" xmlns="http://www.w3.org/2000/svg">
<path d="M12.96 14.575C12.96 13.25 12.96 13.25 12.96 11.925C12.96 10.6 14.256 9.275 16.848 9.275C19.44 9.275 20.736 10.6 20.736 13.25V15.9H32.4V11.925C32.4 1.325 23.328 0 16.848 0C9.072 0 1.296 2.65 1.296 10.6C1.296 13.25 1.296 14.575 1.296 17.225C3.888 26.5 19.44 29.15 22.032 35.775C22.032 37.1 22.032 38.425 22.032 39.75C22.032 41.075 20.736 42.4 18.144 42.4C15.552 42.4 12.96 41.075 12.96 38.425V34.45H0V38.425C0 49.025 7.776 51.675 16.848 51.675C24.624 51.675 32.4 49.025 33.696 41.075C33.696 37.1 33.696 34.45 33.696 33.125C31.104 23.85 14.256 21.2 12.96 14.575ZM163.296 14.575C163.296 13.25 163.296 13.25 163.296 11.925C163.296 10.6 164.592 9.275 167.184 9.275C169.776 9.275 171.072 10.6 171.072 13.25V15.9H182.736V13.25C182.736 2.65 173.664 1.325 167.184 1.325C159.408 1.325 152.928 3.975 151.632 11.925C151.632 14.575 151.632 15.9 151.632 18.55C154.224 27.825 169.776 30.475 172.368 37.1C172.368 38.425 172.368 39.75 172.368 41.075C172.368 42.4 171.072 43.725 168.48 43.725C165.888 43.725 163.296 42.4 163.296 39.75V35.775H151.632V39.75C151.632 50.35 159.408 53 168.48 53C176.256 53 184.032 50.35 184.032 42.4C184.032 38.425 184.032 35.775 184.032 34.45C181.44 23.85 164.592 21.2 163.296 14.575ZM268.272 41.075L257.904 2.65H241.056V49.025H252.72L251.424 9.275L263.088 49.025H279.936V2.65H268.272V41.075ZM50.544 2.65L41.472 50.35H54.432L60.912 6.625L67.392 50.35H80.352L71.28 2.65H50.544ZM119.232 2.65L112.752 39.75L107.568 2.65H88.128L86.832 50.35H98.496V6.625L106.272 50.35H117.936L125.712 6.625V50.35H137.376L136.08 2.65H119.232ZM226.8 2.65H215.136V37.1V38.425C215.136 39.75 213.84 42.4 211.248 42.4C208.656 42.4 207.36 39.75 207.36 38.425V37.1V2.65H195.696V37.1C195.696 38.425 195.696 39.75 195.696 39.75C196.992 49.025 203.472 51.675 211.248 51.675C220.32 51.675 226.8 49.025 226.8 39.75V37.1V2.65ZM307.152 23.85V30.475H312.336V37.1V38.425C312.336 39.75 311.04 42.4 307.152 42.4C303.264 42.4 303.264 39.75 301.968 38.425V37.1V15.9C301.968 14.575 301.968 14.575 301.968 13.25C301.968 11.925 303.264 9.275 307.152 9.275C311.04 9.275 311.04 11.925 312.336 13.25C312.336 14.575 312.336 14.575 312.336 14.575V17.225H324V15.9C324 15.9 324 14.575 324 13.25C322.704 3.975 316.224 1.325 307.152 1.325C299.376 1.325 291.6 3.975 290.304 13.25C290.304 14.575 290.304 15.9 290.304 15.9V35.775C290.304 37.1 290.304 37.1 290.304 38.425C291.6 47.7 298.08 50.35 307.152 50.35C314.928 50.35 322.704 47.7 324 38.425C324 37.1 324 35.775 324 35.775V22.525H307.152V23.85Z" fill="#6E6A79"/>
</svg>
