<svg width="264" height="99" viewBox="0 0 264 99" fill="none" xmlns="http://www.w3.org/2000/svg">
<path d="M0 0.0449646C16.9938 0.0449646 33.9514 0.0449646 50.9452 0.0449646V7.2684C46.9318 7.2684 42.9545 7.23229 38.9772 7.2684C35.5062 7.37675 32.469 10.5912 32.6498 14.0945C32.6498 26.9884 32.6498 39.9183 32.6498 52.8122H18.4401C18.4401 37.643 18.4401 22.4376 18.4401 7.2684H0V0.0449646ZM57.0557 12.1081C57.0919 5.82371 62.5516 0.117199 68.879 0.0449646H100.372V7.2684C92.8511 7.2684 85.2943 7.2684 77.7736 7.2684C74.7365 7.2684 71.9524 9.65213 71.3377 12.6137C70.9038 15.1058 71.0846 18.0313 72.9648 19.9455C74.3026 21.4625 76.2912 22.2932 78.316 22.2209C85.6558 22.2209 92.9957 22.2209 100.372 22.2209C100.372 24.6408 100.372 27.0245 100.372 29.4444H71.2654C71.2654 32.6227 71.2292 35.801 71.2654 39.0154C71.2654 42.4827 74.411 45.5887 77.846 45.6249C85.3666 45.661 92.8872 45.6249 100.372 45.6249C100.372 48.0447 100.372 50.4284 100.372 52.8483C89.8501 52.8483 79.3645 52.8844 68.8429 52.8483C62.5877 52.7399 57.2003 47.1779 57.0557 41.0019C56.9834 31.3224 57.0195 21.7153 57.0557 12.1081ZM107.675 7.19616C109.266 3.72891 112.412 1.1646 116.136 0.297784C117.799 -0.0995052 119.499 0.0449646 121.162 0.0449646C130.744 0.0449646 140.361 0.0449646 149.943 0.0449646V7.2684C142.495 7.2684 135.082 7.2684 127.634 7.2684C123.946 7.08782 120.547 10.4106 120.656 14.0945C120.656 22.257 120.656 30.3834 120.656 38.5459C120.475 42.1576 123.548 45.5165 127.164 45.5887C134.757 45.6249 142.35 45.5887 149.943 45.5887C149.943 48.0086 149.943 50.3923 149.943 52.8122C139.674 52.8122 129.442 52.8122 119.173 52.8122C112.665 53.1372 106.663 47.4668 106.555 40.9657C106.374 32.5143 106.518 24.0629 106.482 15.6115C106.518 12.7582 106.41 9.7966 107.675 7.19616ZM156.09 0.0449646H194.958C200.599 0.00884745 205.769 4.5235 206.745 10.0494C207.035 11.7108 206.89 13.4444 206.926 15.1058C206.926 27.6746 206.926 40.2434 206.926 52.8122H192.825C192.825 39.8822 192.825 26.9884 192.825 14.0584C192.897 10.4467 189.643 7.12393 185.991 7.23228C180.712 7.23228 175.434 7.23228 170.155 7.23228C170.155 22.4015 170.155 37.5707 170.155 52.7761H156.09V0.0449646ZM222.076 0.44225C223.775 -0.0995074 225.583 0.00884524 227.319 0.00884524C235.635 0.0449624 243.951 0.00884524 252.267 0.00884524C258.378 0.117197 263.765 5.53477 263.946 11.6386C263.946 21.4263 263.946 31.2141 263.946 41.0019C263.837 47.1418 258.414 52.5594 252.303 52.7761C243.806 52.8122 235.309 52.7761 226.813 52.8122C225.33 52.8122 223.812 52.8122 222.401 52.451C217.267 51.1869 213.181 46.3111 213.145 40.9657C213.145 31.3224 213.145 21.7153 213.145 12.1081C213.073 6.76276 217.014 1.85082 222.076 0.44225ZM232.525 7.37675C229.524 8.06298 227.138 10.9524 227.21 14.0584C227.21 22.1848 227.21 30.3112 227.21 38.4737C227.102 41.6881 229.271 44.5775 232.417 45.372C234.369 45.7332 236.358 45.5165 238.347 45.5526C240.48 45.4804 242.613 45.7693 244.746 45.3359C247.784 44.6136 249.989 41.5797 249.917 38.4737C249.917 30.3473 249.953 22.2209 249.917 14.0945C249.989 10.3745 246.59 6.94335 242.83 7.23228C239.395 7.34063 235.924 7.05169 232.525 7.37675ZM181.183 59.5661C182.81 58.627 185.015 59.9995 184.871 61.8776C184.943 71.1958 184.871 80.5141 184.907 89.8323C184.798 91.9632 186.498 93.8052 188.631 93.8774C188.739 93.8774 188.848 93.8774 188.992 93.8774C192.174 93.8774 195.356 93.9497 198.538 93.8413C200.599 93.7691 202.154 91.7465 202.081 89.7601C202.117 85.9316 202.117 82.1393 202.081 78.3109C202.154 76.3245 200.526 74.3741 198.502 74.2658C196.188 74.0491 193.874 74.3741 191.596 74.1213C189.716 73.7602 189.101 71.0875 190.475 69.8234C191.415 68.9204 192.789 69.101 193.982 69.0649C196.151 69.101 198.357 68.9566 200.49 69.4261C204.178 70.4013 206.818 73.5796 207.143 77.3358C207.324 80.2974 207.143 83.2951 207.216 86.2567C207.179 88.9294 207.469 91.8549 206.058 94.2747C204.54 97.2002 201.286 98.97 197.995 98.97C194.705 98.97 191.487 99.0422 188.233 98.9338C183.714 98.7533 179.845 94.7442 179.809 90.2296C179.772 80.9475 179.809 71.6654 179.809 62.3832C179.7 61.2997 180.098 60.0356 181.183 59.5661ZM213.543 59.4577C215.134 58.6993 217.231 60.0717 217.014 61.8776C217.014 63.8279 217.231 65.8505 216.833 67.8008C216.11 69.8234 212.784 69.7873 212.133 67.7647C211.735 65.8144 211.916 63.8279 211.952 61.8415C211.952 60.7941 212.567 59.855 213.543 59.4577ZM223.052 59.6383C224.643 58.5548 227.138 59.9273 226.885 61.8776C226.885 70.8346 226.885 79.8278 226.885 88.7849C226.921 90.1212 226.957 91.6382 228.006 92.6133C228.91 93.6246 230.464 93.6968 231.405 94.6359C232.67 96.1528 231.477 98.9699 229.416 98.7171C225.258 98.3198 221.895 94.3469 221.931 90.2296C221.931 80.7669 221.931 71.2681 221.931 61.8054C221.823 60.9747 222.257 60.1079 223.052 59.6383ZM105.651 72.8211C105.651 70.9069 107.386 69.2816 109.23 69.2094C111.219 69.0649 113.641 68.8482 115.16 70.4012C118.197 73.3629 121.162 76.3967 124.199 79.3944C127.2 76.4328 130.165 73.399 133.202 70.4374C134.721 68.8482 137.107 69.0649 139.096 69.2094C140.976 69.2816 142.712 70.943 142.712 72.8572C142.784 80.478 142.712 88.0987 142.748 95.7555C142.784 96.7307 142.712 97.8503 141.808 98.4643C140.397 99.6923 137.722 98.681 137.794 96.7307C137.722 88.8571 137.794 80.9475 137.758 73.0739C134.178 76.6134 130.635 80.189 127.092 83.7285C125.645 85.3899 122.753 85.3899 121.307 83.7285C117.727 80.189 114.184 76.6134 110.64 73.0739C110.604 80.9836 110.676 88.8571 110.604 96.7307C110.64 98.681 107.965 99.6923 106.555 98.4282C105.687 97.8503 105.614 96.7307 105.651 95.7916C105.651 88.1348 105.578 80.478 105.651 72.8211ZM153.776 69.6067C156.487 68.8482 159.308 69.1733 162.092 69.101C164.695 69.1371 167.479 68.8482 169.902 70.004C172.794 71.4125 174.964 74.4825 174.927 77.7691C174.927 81.9226 174.927 86.1122 174.927 90.2657C175 94.5998 171.312 98.4643 167.045 98.8616C163.755 99.0783 160.428 98.8977 157.138 98.97C153.776 99.1144 150.63 97.4169 148.894 94.5637C146.978 91.4576 147.81 87.7014 147.629 84.3064C147.773 81.3448 147.231 78.2748 148.063 75.3854C148.931 72.6405 151.064 70.5096 153.776 69.6067ZM155.222 74.5547C153.667 75.1326 152.655 76.6856 152.727 78.347C152.727 82.1755 152.727 86.0039 152.727 89.8323C152.619 91.9271 154.463 93.9497 156.596 93.8774C159.741 93.9135 162.887 93.9135 166.069 93.8774C168.094 93.8413 169.757 92.2521 169.902 90.2296C170.01 86.7623 169.902 83.2951 169.974 79.8278C170.01 78.2387 169.974 76.3967 168.636 75.3132C167.009 73.7963 164.623 74.338 162.598 74.2297C160.103 74.338 157.572 73.8324 155.222 74.5547ZM236.683 77.7691C236.683 73.5796 240.118 69.7511 244.276 69.2455C248.254 68.9927 252.267 68.9927 256.244 69.2455C260.439 69.6789 263.982 73.5796 263.982 77.8053C263.982 79.6111 264.054 81.4531 263.91 83.259C263.729 85.2454 261.668 86.7262 259.715 86.5095C255.919 86.4734 252.086 86.6179 248.29 86.4373C245.831 86.04 245.94 81.8504 248.434 81.5976C251.942 81.4531 255.485 81.5976 258.992 81.5615C258.92 79.4667 259.39 76.9385 257.727 75.3493C256.461 74.013 254.436 74.2297 252.773 74.2297C250.315 74.3019 247.82 74.1574 245.361 74.3019C243.3 74.4825 241.745 76.2522 241.854 78.3109C241.854 82.3199 241.818 86.3289 241.89 90.3379C241.89 91.6382 242.758 92.7578 243.806 93.3718C245.036 94.058 246.482 93.8413 247.82 93.8774C250.459 93.8052 253.135 93.9858 255.774 93.8052C257.835 93.5524 258.595 91.4937 259.39 89.9045C260.619 88.0264 263.801 89.0738 263.91 91.2409C263.548 95.2499 259.932 98.6449 255.955 98.8977C253.749 99.0783 251.544 98.9338 249.302 98.97C247.169 98.9338 244.963 99.1505 242.866 98.5004C239.395 97.3808 236.72 93.9497 236.756 90.2657C236.683 86.1122 236.683 81.9587 236.683 77.7691ZM213.109 74.4464C214.736 73.2906 217.303 74.7714 217.014 76.794C217.014 83.2951 217.014 89.7601 217.014 96.2612C217.231 98.067 215.134 99.5839 213.471 98.7533C212.277 98.2837 211.807 96.9474 211.916 95.7555C211.916 89.6156 211.916 83.4396 211.916 77.2996C211.844 76.2161 212.097 75.0243 213.109 74.4464Z" fill="#6E6A79"/>
</svg>
